<svg width="32" height="32" viewBox="0 0 32 32" fill="none" xmlns="http://www.w3.org/2000/svg">
<rect width="32" height="32" rx="16" fill="#eeb127"/>
<path d="M15.908 21.168C15.1613 21.168 14.4707 21.0327 13.836 20.762C13.2107 20.4913 12.66 20.1133 12.184 19.628C11.7173 19.1427 11.3533 18.5733 11.092 17.92C10.8307 17.2667 10.7 16.5527 10.7 15.778C10.7 15.0033 10.826 14.2893 11.078 13.636C11.3393 12.9733 11.7033 12.404 12.17 11.928C12.646 11.4427 13.2013 11.0693 13.836 10.808C14.4707 10.5373 15.1613 10.402 15.908 10.402C16.6547 10.402 17.322 10.528 17.91 10.78C18.5073 11.032 19.0113 11.368 19.422 11.788C19.8327 12.1987 20.1267 12.6513 20.304 13.146L18.596 13.944C18.4 13.4213 18.0687 12.992 17.602 12.656C17.1353 12.3107 16.5707 12.138 15.908 12.138C15.2547 12.138 14.676 12.292 14.172 12.6C13.6773 12.908 13.29 13.3327 13.01 13.874C12.7393 14.4153 12.604 15.05 12.604 15.778C12.604 16.506 12.7393 17.1453 13.01 17.696C13.29 18.2373 13.6773 18.662 14.172 18.97C14.676 19.278 15.2547 19.432 15.908 19.432C16.5707 19.432 17.1353 19.264 17.602 18.928C18.0687 18.5827 18.4 18.1487 18.596 17.626L20.304 18.424C20.1267 18.9187 19.8327 19.376 19.422 19.796C19.0113 20.2067 18.5073 20.538 17.91 20.79C17.322 21.042 16.6547 21.168 15.908 21.168Z" fill="black"/>
</svg>
